# xmcd
#
# Track frame offsets: 
#        150
#        16243
#        30766
#        47940
#        65773
#        83684
#        95299
#        111812
#        125398
#        141985
#        157480
#        171637
#        185819
#        200529
#        221020
#        239946
#        251315
#        264611
#
# Disc length: 3712 seconds
#
# Revision: 0
# Processed by: cddbd v1.5.2PL0 Copyright (c) Steve Scherf et al.
# Submitted via: ExactAudioCopy v0.99pb3
#
DISCID=120e7e12
DTITLE=Various Artist - MTM #22
DYEAR=1900
DGENRE=Country
TTITLE0=Adam Wayde - Long Way Back
TTITLE1=Randy Archer - I Own This Barstool
TTITLE2=Kim McLean - Forever Everday
TTITLE3=Sean Kristopher - The Lil' Things
TTITLE4=Rustie Blue - Before I Fall
TTITLE5=Ed Bruce - The Tracks You Left On Me
TTITLE6=Jokers Wild Band - And The Rain
TTITLE7=Sherida Eastman - Get Lost
TTITLE8=John Foster - Short Cut Bay
TTITLE9=Pam Tillis - Band In The Window
TTITLE10=Danney Ball - The California Earthquake Song
TTITLE11=Pete Sclegel - Give Me Summertime
TTITLE12=Cindy Lu - It's A Girl Thing
TTITLE13=Liz Daniels - Someway, Somehow, Someday
TTITLE14=Ray William Roldan - Smell Of Apples
TTITLE15=Jim Cristaldi - Walking On Water
TTITLE16=Rachael Lillott - Georgia Heat
TTITLE17=Lisa Dudley - Angel On My Sholder
EXTD=
EXTT0=
EXTT1=
EXTT2=
EXTT3=
EXTT4=
EXTT5=
EXTT6=
EXTT7=
EXTT8=
EXTT9=
EXTT10=
EXTT11=
EXTT12=
EXTT13=
EXTT14=
EXTT15=
EXTT16=
EXTT17=
PLAYORDER=
